<svg xmlns="http://www.w3.org/2000/svg" viewBox="0 0 120.84 33.07"><defs><style>.cls-3{fill:#00b7ce}</style></defs><g id="Layer_2" data-name="Layer 2"><g id="Layer_1-2" data-name="Layer 1"><path style="fill:#f37160" d="M24.05 12.83 9.02 16.86V13.1l15.03-4.03v3.76z"/><path style="fill:#007b78" d="M24.05 19.97 9.02 24v-3.76l15.03-4.03v3.76z"/><path class="cls-3" d="M16.53 33.07a16.54 16.54 0 1 1 16.54-16.54 16.56 16.56 0 0 1-16.54 16.54zm0-29.69a13.16 13.16 0 1 0 13.16 13.15A13.17 13.17 0 0 0 16.53 3.38z"/><path d="M47.77 22.35c-1.44 1.23-2.76 1.21-4.58 1.21h-4.45v-14h4.32c1.68 0 3.27 0 4.49 1.36a3.35 3.35 0 0 1 .83 2.31A3.15 3.15 0 0 1 46.75 16a3.2 3.2 0 0 1 2.31 3.26 4 4 0 0 1-1.29 3.09zm-4.22-9.66h-1.38v2.18h1.36c.78 0 1.42-.23 1.42-1.12s-.66-1.06-1.4-1.06zm.45 5.17h-1.8v2.56H44c.89 0 1.68-.31 1.68-1.35s-.88-1.21-1.68-1.21zm12.5 5.7v-5.72c0-1.13-.32-2.19-1.68-2.19s-1.76.89-1.76 2.08v5.83h-3.15v-14h3.15V14a2.94 2.94 0 0 1 2.71-1.33 3.82 3.82 0 0 1 2.86 1.16c1 1.15 1 2.4 1 3.84v5.87zm12.33 0v-1.14a3.42 3.42 0 0 1-3.07 1.5c-3.23 0-5.28-2.5-5.28-5.62a5.32 5.32 0 0 1 5.28-5.61 3.52 3.52 0 0 1 3.07 1.48v-1.12H72v10.51zm-2.65-7.93a2.59 2.59 0 0 0-2.6 2.71 2.63 2.63 0 1 0 5.25 0 2.58 2.58 0 0 0-2.65-2.71zm10.26 2.16v5.77H73.3V13.05h3v1.12a2.64 2.64 0 0 1 2.63-1.48v3.16c-1.39.04-2.49.31-2.49 1.94zm11.02 5.77v-1.14a3.4 3.4 0 0 1-3.06 1.5c-3.24 0-5.29-2.5-5.29-5.62a5.32 5.32 0 0 1 5.29-5.61 3.52 3.52 0 0 1 3.06 1.48v-1.12h3.14v10.51zm-2.65-7.93a2.59 2.59 0 0 0-2.59 2.71 2.62 2.62 0 1 0 5.24 0 2.58 2.58 0 0 0-2.65-2.71zm11.47-.19v8.12h-3.14v-8.12h-1.55v-2.39h1.55v-3.5h3.14v3.5h1.52v2.39z" style="fill:#fff"/><path class="cls-3" d="M108.36 18a5.62 5.62 0 0 1-4.09 1.21h-1.55v4.39H99.3v-14h4.58c1.44 0 3.16.06 4.31 1a4.76 4.76 0 0 1 1.65 3.71 5.08 5.08 0 0 1-1.48 3.69zm-4.31-5.27h-1.33V16h1.46c1.17 0 2.23-.27 2.23-1.69s-1.19-1.62-2.36-1.62zm16.72 6.53h-7.88a2.36 2.36 0 0 0 2.46 2 2.26 2.26 0 0 0 1.91-1h3.22a5.63 5.63 0 0 1-5.13 3.63 5.61 5.61 0 1 1 5.49-5.47 4.65 4.65 0 0 1-.07.84zm-5.46-3.92a2.33 2.33 0 0 0-2.38 1.8h4.77a2.34 2.34 0 0 0-2.39-1.8z"/></g></g></svg>